<svg version="1.1" id="Layer_1" xmlns="http://www.w3.org/2000/svg" xmlns:xlink="http://www.w3.org/1999/xlink" x="0px" y="0px"
	 width="100%" viewBox="0 0 580 357" enable-background="new 0 0 580 357" xml:space="preserve">
<path fill="#000000" opacity="1.000000" stroke="none" 
	d="
M339.000000,358.000000 
	C226.000000,358.000000 113.500000,358.000000 1.000000,358.000000 
	C1.000000,239.000000 1.000000,120.000000 1.000000,1.000000 
	C194.333328,1.000000 387.666656,1.000000 581.000000,1.000000 
	C581.000000,120.000000 581.000000,239.000000 581.000000,358.000000 
	C500.500000,358.000000 420.000000,358.000000 339.000000,358.000000 
M339.500000,219.938858 
	C353.491211,219.931946 367.483490,220.025085 381.473175,219.874481 
	C388.125946,219.802856 389.909943,217.880646 389.928040,211.612701 
	C389.960724,200.286545 389.946564,188.960236 389.936035,177.634003 
	C389.927979,168.968643 389.194763,168.009964 380.623810,168.150650 
	C376.262543,168.222244 374.636658,166.784546 374.842346,162.410950 
	C375.043732,158.129288 372.456879,156.092148 368.247192,156.079132 
	C364.083191,156.066269 359.909393,156.246948 355.757690,156.018860 
	C350.965790,155.755630 348.965454,158.100174 349.109192,162.556992 
	C349.222076,166.057144 348.540833,168.218826 344.238281,168.137207 
	C339.977112,168.056335 339.735718,165.574951 339.955872,162.533707 
	C340.312775,157.603394 337.543884,156.065887 333.220520,156.073669 
	C329.223053,156.080872 325.221893,156.180252 321.229126,156.042053 
	C316.713074,155.885742 314.722412,158.022278 315.083099,162.402344 
	C315.399658,166.246338 314.277161,168.232590 309.880005,168.165253 
	C305.863068,168.103714 303.563477,167.368896 303.853149,162.670654 
	C304.132660,158.138245 301.458099,156.043350 297.008362,156.067108 
	C293.177551,156.087570 289.346375,156.041016 285.515656,156.068283 
	C279.333801,156.112289 278.328064,156.931702 278.130280,163.298126 
	C278.027435,166.609497 277.024719,168.020264 273.508118,168.135208 
	C266.652100,168.359344 265.107697,170.132523 265.076599,176.974731 
	C265.028137,187.634506 265.056244,198.294662 265.062927,208.954651 
	C265.068939,218.506226 266.461121,219.922775 276.039093,219.932068 
	C296.859406,219.952271 317.679688,219.938507 339.500000,219.938858 
M316.619659,131.109451 
	C321.559631,127.453896 322.341003,125.402420 319.500244,120.216133 
	C314.709015,111.469147 309.619476,102.881622 304.508057,94.314941 
	C297.666718,82.848930 297.607605,82.887093 285.832336,89.276039 
	C285.570648,89.418022 285.193756,89.347649 284.869568,89.364555 
	C277.387299,80.204689 277.217285,80.179245 266.665955,86.610619 
	C266.382019,86.783676 266.079803,86.926369 265.792664,87.094452 
	C256.439575,92.568794 256.363678,92.842804 261.355988,102.420410 
	C261.478210,102.654877 261.298431,103.046722 261.220947,103.680603 
	C258.405792,104.415115 256.041382,109.858376 252.484131,104.096558 
	C249.164261,98.719215 246.880325,98.271240 241.418091,101.414879 
	C239.976898,102.244324 238.576019,103.143509 237.147797,103.995911 
	C224.649536,111.455162 227.346680,110.485580 231.586426,120.446289 
	C230.911362,121.019310 230.214813,121.688919 229.441605,122.253548 
	C225.834152,124.887840 222.651932,126.877342 219.937012,120.825035 
	C218.469574,117.553734 214.919113,117.172462 211.697281,118.983177 
	C208.074448,121.019249 204.623108,123.361961 200.989090,125.376289 
	C196.865219,127.662155 195.535660,130.544250 198.365402,134.713165 
	C200.693344,138.142807 199.665756,140.227814 196.065231,142.167725 
	C191.616180,144.564835 190.793472,147.999893 193.264221,152.244843 
	C199.538483,163.024536 205.901047,173.754349 212.364700,184.421448 
	C214.598511,188.107956 217.821426,189.065048 221.745590,186.766327 
	C235.377274,178.781067 249.034836,170.839951 262.659668,162.843048 
	C280.443665,152.404999 298.205811,141.929764 316.619659,131.109451 
M286.500000,226.036819 
	C270.847565,226.036530 255.192657,225.880539 239.544174,226.128876 
	C234.720688,226.205429 232.319687,225.052826 232.886795,219.776779 
	C233.310471,215.835022 231.131348,213.978470 227.179840,214.038895 
	C223.018036,214.102539 218.854263,214.020660 214.691589,214.044479 
	C208.357529,214.080734 207.254990,214.912643 207.125366,221.090210 
	C207.049698,224.695953 205.865311,226.079819 202.168304,226.109695 
	C195.722015,226.161774 194.101028,227.991470 194.064789,234.615616 
	C194.001007,246.271271 194.000229,257.927826 194.069061,269.583435 
	C194.103348,275.389771 195.659470,276.929138 201.568558,276.934814 
	C238.201736,276.970123 274.834991,276.970490 311.468140,276.933960 
	C317.354126,276.928101 318.901031,275.379883 318.931854,269.547455 
	C318.996979,257.225708 318.859161,244.902344 318.999786,232.581863 
	C319.053009,227.918793 317.184814,225.908722 312.476288,225.999100 
	C304.153687,226.158859 295.825714,226.039490 286.500000,226.036819 
M365.499695,276.950317 
	C371.159210,276.943359 376.821381,277.041260 382.477448,276.898102 
	C387.484375,276.771393 389.882874,274.413391 389.914185,269.559296 
	C389.991425,257.574890 390.018555,245.588791 389.894501,233.605133 
	C389.836914,228.045944 387.767700,226.086960 382.310638,226.069870 
	C366.996704,226.021912 351.682281,226.009003 336.368500,226.077682 
	C330.122711,226.105682 328.106842,228.203018 328.072784,234.588745 
	C328.010742,246.240433 328.009735,257.892975 328.075867,269.544617 
	C328.108978,275.376678 329.648865,276.886139 335.536316,276.926758 
	C345.190399,276.993439 354.845276,276.948181 365.499695,276.950317 
z"/>
<path fill="#31342F" opacity="1.000000" stroke="none" 
	d="
M339.000000,219.938751 
	C317.679688,219.938507 296.859406,219.952271 276.039093,219.932068 
	C266.461121,219.922775 265.068939,218.506226 265.062927,208.954651 
	C265.056244,198.294662 265.028137,187.634506 265.076599,176.974731 
	C265.107697,170.132523 266.652100,168.359344 273.508118,168.135208 
	C277.024719,168.020264 278.027435,166.609497 278.130280,163.298126 
	C278.328064,156.931702 279.333801,156.112289 285.515656,156.068283 
	C289.346375,156.041016 293.177551,156.087570 297.008362,156.067108 
	C301.458099,156.043350 304.132660,158.138245 303.853149,162.670654 
	C303.563477,167.368896 305.863068,168.103714 309.880005,168.165253 
	C314.277161,168.232590 315.399658,166.246338 315.083099,162.402344 
	C314.722412,158.022278 316.713074,155.885742 321.229126,156.042053 
	C325.221893,156.180252 329.223053,156.080872 333.220520,156.073669 
	C337.543884,156.065887 340.312775,157.603394 339.955872,162.533707 
	C339.735718,165.574951 339.977112,168.056335 344.238281,168.137207 
	C348.540833,168.218826 349.222076,166.057144 349.109192,162.556992 
	C348.965454,158.100174 350.965790,155.755630 355.757690,156.018860 
	C359.909393,156.246948 364.083191,156.066269 368.247192,156.079132 
	C372.456879,156.092148 375.043732,158.129288 374.842346,162.410950 
	C374.636658,166.784546 376.262543,168.222244 380.623810,168.150650 
	C389.194763,168.009964 389.927979,168.968643 389.936035,177.634003 
	C389.946564,188.960236 389.960724,200.286545 389.928040,211.612701 
	C389.909943,217.880646 388.125946,219.802856 381.473175,219.874481 
	C367.483490,220.025085 353.491211,219.931946 339.000000,219.938751 
M350.500000,215.930313 
	C360.817108,215.929779 371.137238,215.784988 381.449677,216.004181 
	C385.237701,216.084686 386.314514,214.743454 386.257904,211.099670 
	C386.076935,199.454132 386.101074,187.802948 386.245941,176.156433 
	C386.286011,172.934280 385.281342,171.829819 381.980255,171.838516 
	C345.870667,171.933655 309.760498,171.953629 273.651154,171.823212 
	C269.503693,171.808243 268.640320,173.478607 268.699524,177.177246 
	C268.875366,188.157135 268.967834,199.147339 268.664734,210.121689 
	C268.536621,214.759872 270.012268,216.068222 274.618683,216.029495 
	C299.577667,215.819641 324.539276,215.930161 350.500000,215.930313 
M318.979248,168.786652 
	C324.865173,168.786652 330.751099,168.786652 336.819611,168.786652 
	C336.819611,166.340317 337.071014,164.469940 336.723663,162.718307 
	C336.520966,161.696243 335.393219,160.101852 334.625793,160.068970 
	C329.235504,159.837997 323.830688,159.946518 318.335449,159.946518 
	C318.335449,163.194138 318.335449,165.660538 318.979248,168.786652 
M294.399048,169.039307 
	C296.165680,169.039307 297.932343,169.039307 300.183990,169.039307 
	C300.183990,166.541946 300.486755,164.532440 300.067444,162.686996 
	C299.826141,161.625122 298.454468,160.084976 297.525574,160.036926 
	C292.482391,159.776031 287.418640,159.913040 282.278900,159.913040 
	C282.278900,163.265533 282.278900,165.957703 282.278900,169.039368 
	C286.229431,169.039368 289.831268,169.039368 294.399048,169.039307 
M362.485596,169.037476 
	C365.245758,169.037476 368.005920,169.037476 371.123260,169.037476 
	C371.123260,166.422653 371.370697,164.415726 371.020111,162.519363 
	C370.841583,161.553619 369.618286,160.078842 368.815582,160.044571 
	C363.583160,159.821198 358.336517,159.929779 353.180847,159.929779 
	C353.180847,163.357605 353.180847,166.055023 353.180847,169.037476 
	C356.237030,169.037476 358.872345,169.037476 362.485596,169.037476 
z"/>
<path fill="#2D2B2E" opacity="1.000000" stroke="none" 
	d="
M316.298523,131.289993 
	C298.205811,141.929764 280.443665,152.404999 262.659668,162.843048 
	C249.034836,170.839951 235.377274,178.781067 221.745590,186.766327 
	C217.821426,189.065048 214.598511,188.107956 212.364700,184.421448 
	C205.901047,173.754349 199.538483,163.024536 193.264221,152.244843 
	C190.793472,147.999893 191.616180,144.564835 196.065231,142.167725 
	C199.665756,140.227814 200.693344,138.142807 198.365402,134.713165 
	C195.535660,130.544250 196.865219,127.662155 200.989090,125.376289 
	C204.623108,123.361961 208.074448,121.019249 211.697281,118.983177 
	C214.919113,117.172462 218.469574,117.553734 219.937012,120.825035 
	C222.651932,126.877342 225.834152,124.887840 229.441605,122.253548 
	C230.214813,121.688919 230.911362,121.019310 231.586426,120.446289 
	C227.346680,110.485580 224.649536,111.455162 237.147797,103.995911 
	C238.576019,103.143509 239.976898,102.244324 241.418091,101.414879 
	C246.880325,98.271240 249.164261,98.719215 252.484131,104.096558 
	C256.041382,109.858376 258.405792,104.415115 261.220947,103.680603 
	C261.298431,103.046722 261.478210,102.654877 261.355988,102.420410 
	C256.363678,92.842804 256.439575,92.568794 265.792664,87.094452 
	C266.079803,86.926369 266.382019,86.783676 266.665955,86.610619 
	C277.217285,80.179245 277.387299,80.204689 284.870087,89.370438 
	C285.193756,89.347649 285.570648,89.418022 285.832336,89.276039 
	C297.607605,82.887093 297.666718,82.848930 304.508057,94.314941 
	C309.619476,102.881622 314.709015,111.469147 319.500244,120.216133 
	C322.341003,125.402420 321.559631,127.453896 316.298523,131.289993 
M311.926605,114.594879 
	C307.464996,106.991592 302.888031,99.452614 298.596741,91.754395 
	C296.799500,88.530365 295.123718,88.115341 291.906250,90.021439 
	C261.139771,108.248085 230.322754,126.390434 199.420151,144.385056 
	C195.806732,146.489166 195.220825,148.360184 197.358276,151.857437 
	C202.821991,160.797119 208.031647,169.891708 213.387421,178.897873 
	C217.153000,185.229965 217.174026,185.190857 223.433640,181.508347 
	C248.091934,167.001953 272.763641,152.518372 297.417877,138.005066 
	C304.258362,133.978256 311.055725,129.878174 318.355865,125.523621 
	C316.125366,121.754402 314.197266,118.496170 311.926605,114.594879 
M233.322479,115.172165 
	C234.205124,116.528130 235.087753,117.884087 236.235199,119.646851 
	C241.639267,116.438408 246.682770,113.444046 251.663147,110.487160 
	C247.722046,102.008560 247.724487,102.012627 240.456100,106.376945 
	C238.317047,107.661346 235.927521,108.657234 234.109116,110.292717 
	C233.202225,111.108376 233.325134,113.069023 233.322479,115.172165 
M201.809677,133.389252 
	C202.729324,134.893112 203.648956,136.396973 204.740189,138.181427 
	C210.254395,134.900558 215.306793,131.894455 220.295792,128.926086 
	C216.165466,120.570274 216.166931,120.572723 208.886520,124.943832 
	C206.747467,126.228111 204.405502,127.270065 202.538483,128.869064 
	C201.682968,129.601776 201.751495,131.413391 201.809677,133.389252 
M262.676910,93.389763 
	C263.417664,96.247047 264.158386,99.104332 265.089844,102.697220 
	C271.354126,98.992668 276.393555,96.012466 281.338898,93.087898 
	C277.736084,84.624344 277.652496,84.591118 270.584473,88.683823 
	C268.147583,90.094879 265.727234,91.534447 262.676910,93.389763 
z"/>
<path fill="#293034" opacity="1.000000" stroke="none" 
	d="
M287.000000,226.036896 
	C295.825714,226.039490 304.153687,226.158859 312.476288,225.999100 
	C317.184814,225.908722 319.053009,227.918793 318.999786,232.581863 
	C318.859161,244.902344 318.996979,257.225708 318.931854,269.547455 
	C318.901031,275.379883 317.354126,276.928101 311.468140,276.933960 
	C274.834991,276.970490 238.201736,276.970123 201.568558,276.934814 
	C195.659470,276.929138 194.103348,275.389771 194.069061,269.583435 
	C194.000229,257.927826 194.001007,246.271271 194.064789,234.615616 
	C194.101028,227.991470 195.722015,226.161774 202.168304,226.109695 
	C205.865311,226.079819 207.049698,224.695953 207.125366,221.090210 
	C207.254990,214.912643 208.357529,214.080734 214.691589,214.044479 
	C218.854263,214.020660 223.018036,214.102539 227.179840,214.038895 
	C231.131348,213.978470 233.310471,215.835022 232.886795,219.776779 
	C232.319687,225.052826 234.720688,226.205429 239.544174,226.128876 
	C255.192657,225.880539 270.847565,226.036530 287.000000,226.036896 
M291.499939,273.227448 
	C297.827393,273.225555 304.160614,273.059601 310.480072,273.283508 
	C314.246918,273.416992 315.377441,271.921722 315.327515,268.313538 
	C315.170807,256.992981 315.146271,245.666702 315.341461,234.347321 
	C315.408691,230.447464 314.105621,229.140778 310.178986,229.153351 
	C274.546326,229.267471 238.913025,229.265945 203.280289,229.162292 
	C199.147812,229.150269 197.714828,230.630051 197.788208,234.727219 
	C197.981979,245.546951 198.083466,256.379608 197.748703,267.192474 
	C197.595184,272.151123 199.419693,273.342560 204.081299,273.314240 
	C232.886627,273.139221 261.693542,273.227142 291.499939,273.227448 
M221.406845,226.663132 
	C222.072540,226.663101 222.738632,226.647751 223.403839,226.665604 
	C226.815201,226.757111 229.977783,227.188278 229.846573,221.825912 
	C229.715454,216.467682 226.418304,217.112823 223.089401,217.117569 
	C220.925919,217.120667 218.750153,217.265274 216.601654,217.085922 
	C212.877090,216.775040 210.845566,217.504257 210.821533,222.084213 
	C210.797226,226.719833 213.216980,226.824905 216.473953,226.672165 
	C217.802399,226.609879 219.136215,226.662354 221.406845,226.663132 
z"/>
<path fill="#253138" opacity="1.000000" stroke="none" 
	d="
M364.999756,276.950226 
	C354.845276,276.948181 345.190399,276.993439 335.536316,276.926758 
	C329.648865,276.886139 328.108978,275.376678 328.075867,269.544617 
	C328.009735,257.892975 328.010742,246.240433 328.072784,234.588745 
	C328.106842,228.203018 330.122711,226.105682 336.368500,226.077682 
	C351.682281,226.009003 366.996704,226.021912 382.310638,226.069870 
	C387.767700,226.086960 389.836914,228.045944 389.894501,233.605133 
	C390.018555,245.588791 389.991425,257.574890 389.914185,269.559296 
	C389.882874,274.413391 387.484375,276.771393 382.477448,276.898102 
	C376.821381,277.041260 371.159210,276.943359 364.999756,276.950226 
M379.387024,229.349564 
	C365.567352,229.351028 351.746826,229.440018 337.928497,229.303604 
	C333.456757,229.259460 331.668274,230.955399 331.752991,235.506744 
	C331.954376,246.325638 331.956421,257.153473 331.748901,267.972107 
	C331.668243,272.177032 333.290375,273.452148 337.332703,273.404968 
	C351.649933,273.237915 365.971252,273.246765 380.288910,273.393005 
	C384.570374,273.436737 386.236328,271.854767 386.170990,267.526459 
	C386.007660,256.706787 386.009369,245.878998 386.254730,235.061493 
	C386.355377,230.624451 384.573517,228.938553 379.387024,229.349564 
z"/>
<path fill="#FECF4C" opacity="1.000000" stroke="none" 
	d="
M350.000000,215.930313 
	C324.539276,215.930161 299.577667,215.819641 274.618683,216.029495 
	C270.012268,216.068222 268.536621,214.759872 268.664734,210.121689 
	C268.967834,199.147339 268.875366,188.157135 268.699524,177.177246 
	C268.640320,173.478607 269.503693,171.808243 273.651154,171.823212 
	C309.760498,171.953629 345.870667,171.933655 381.980255,171.838516 
	C385.281342,171.829819 386.286011,172.934280 386.245941,176.156433 
	C386.101074,187.802948 386.076935,199.454132 386.257904,211.099670 
	C386.314514,214.743454 385.237701,216.084686 381.449677,216.004181 
	C371.137238,215.784988 360.817108,215.929779 350.000000,215.930313 
z"/>
<path fill="#F7CA4B" opacity="1.000000" stroke="none" 
	d="
M318.657349,168.456802 
	C318.335449,165.660538 318.335449,163.194138 318.335449,159.946518 
	C323.830688,159.946518 329.235504,159.837997 334.625793,160.068970 
	C335.393219,160.101852 336.520966,161.696243 336.723663,162.718307 
	C337.071014,164.469940 336.819611,166.340317 336.819611,168.786652 
	C330.751099,168.786652 324.865173,168.786652 318.657349,168.456802 
z"/>
<path fill="#FBCD4B" opacity="1.000000" stroke="none" 
	d="
M293.916077,169.039337 
	C289.831268,169.039368 286.229431,169.039368 282.278900,169.039368 
	C282.278900,165.957703 282.278900,163.265533 282.278900,159.913040 
	C287.418640,159.913040 292.482391,159.776031 297.525574,160.036926 
	C298.454468,160.084976 299.826141,161.625122 300.067444,162.686996 
	C300.486755,164.532440 300.183990,166.541946 300.183990,169.039307 
	C297.932343,169.039307 296.165680,169.039307 293.916077,169.039337 
z"/>
<path fill="#FBCD4B" opacity="1.000000" stroke="none" 
	d="
M361.996643,169.037476 
	C358.872345,169.037476 356.237030,169.037476 353.180847,169.037476 
	C353.180847,166.055023 353.180847,163.357605 353.180847,159.929779 
	C358.336517,159.929779 363.583160,159.821198 368.815582,160.044571 
	C369.618286,160.078842 370.841583,161.553619 371.020111,162.519363 
	C371.370697,164.415726 371.123260,166.422653 371.123260,169.037476 
	C368.005920,169.037476 365.245758,169.037476 361.996643,169.037476 
z"/>
<path fill="#E73E49" opacity="1.000000" stroke="none" 
	d="
M312.097900,114.916412 
	C314.197266,118.496170 316.125366,121.754402 318.355865,125.523621 
	C311.055725,129.878174 304.258362,133.978256 297.417877,138.005066 
	C272.763641,152.518372 248.091934,167.001953 223.433640,181.508347 
	C217.174026,185.190857 217.153000,185.229965 213.387421,178.897873 
	C208.031647,169.891708 202.821991,160.797119 197.358276,151.857437 
	C195.220825,148.360184 195.806732,146.489166 199.420151,144.385056 
	C230.322754,126.390434 261.139771,108.248085 291.906250,90.021439 
	C295.123718,88.115341 296.799500,88.530365 298.596741,91.754395 
	C302.888031,99.452614 307.464996,106.991592 312.097900,114.916412 
z"/>
<path fill="#DF3D48" opacity="1.000000" stroke="none" 
	d="
M233.152344,114.841957 
	C233.325134,113.069023 233.202225,111.108376 234.109116,110.292717 
	C235.927521,108.657234 238.317047,107.661346 240.456100,106.376945 
	C247.724487,102.012627 247.722046,102.008560 251.663147,110.487160 
	C246.682770,113.444046 241.639267,116.438408 236.235199,119.646851 
	C235.087753,117.884087 234.205124,116.528130 233.152344,114.841957 
z"/>
<path fill="#DF3D48" opacity="1.000000" stroke="none" 
	d="
M201.605316,133.062500 
	C201.751495,131.413391 201.682968,129.601776 202.538483,128.869064 
	C204.405502,127.270065 206.747467,126.228111 208.886520,124.943832 
	C216.166931,120.572723 216.165466,120.570274 220.295792,128.926086 
	C215.306793,131.894455 210.254395,134.900558 204.740189,138.181427 
	C203.648956,136.396973 202.729324,134.893112 201.605316,133.062500 
z"/>
<path fill="#E03D48" opacity="1.000000" stroke="none" 
	d="
M262.988098,93.175385 
	C265.727234,91.534447 268.147583,90.094879 270.584473,88.683823 
	C277.652496,84.591118 277.736084,84.624344 281.338898,93.087898 
	C276.393555,96.012466 271.354126,98.992668 265.089844,102.697220 
	C264.158386,99.104332 263.417664,96.247047 262.988098,93.175385 
z"/>
<path fill="#7F8AA1" opacity="1.000000" stroke="none" 
	d="
M290.999939,273.227570 
	C261.693542,273.227142 232.886627,273.139221 204.081299,273.314240 
	C199.419693,273.342560 197.595184,272.151123 197.748703,267.192474 
	C198.083466,256.379608 197.981979,245.546951 197.788208,234.727219 
	C197.714828,230.630051 199.147812,229.150269 203.280289,229.162292 
	C238.913025,229.265945 274.546326,229.267471 310.178986,229.153351 
	C314.105621,229.140778 315.408691,230.447464 315.341461,234.347321 
	C315.146271,245.666702 315.170807,256.992981 315.327515,268.313538 
	C315.377441,271.921722 314.246918,273.416992 310.480072,273.283508 
	C304.160614,273.059601 297.827393,273.225555 290.999939,273.227570 
z"/>
<path fill="#788297" opacity="1.000000" stroke="none" 
	d="
M220.937225,226.662872 
	C219.136215,226.662354 217.802399,226.609879 216.473953,226.672165 
	C213.216980,226.824905 210.797226,226.719833 210.821533,222.084213 
	C210.845566,217.504257 212.877090,216.775040 216.601654,217.085922 
	C218.750153,217.265274 220.925919,217.120667 223.089401,217.117569 
	C226.418304,217.112823 229.715454,216.467682 229.846573,221.825912 
	C229.977783,227.188278 226.815201,226.757111 223.403839,226.665604 
	C222.738632,226.647751 222.072540,226.663101 220.937225,226.662872 
z"/>
<path fill="#3797D3" opacity="1.000000" stroke="none" 
	d="
M379.874512,229.350952 
	C384.573517,228.938553 386.355377,230.624451 386.254730,235.061493 
	C386.009369,245.878998 386.007660,256.706787 386.170990,267.526459 
	C386.236328,271.854767 384.570374,273.436737 380.288910,273.393005 
	C365.971252,273.246765 351.649933,273.237915 337.332703,273.404968 
	C333.290375,273.452148 331.668243,272.177032 331.748901,267.972107 
	C331.956421,257.153473 331.954376,246.325638 331.752991,235.506744 
	C331.668274,230.955399 333.456757,229.259460 337.928497,229.303604 
	C351.746826,229.440018 365.567352,229.351028 379.874512,229.350952 
z"/>
</svg>